<?xml version="1.0" encoding="UTF-8"?>
<svg id="_레이어_1" data-name=" 레이어 1" xmlns="http://www.w3.org/2000/svg" viewBox="0 0 83.37 83.37">
  <defs>
    <style>
      .cls-1, .cls-2 {
        fill: #fff;
      }

      .cls-3, .cls-2 {
        stroke-linejoin: round;
      }

      .cls-3, .cls-2, .cls-4, .cls-5 {
        stroke-linecap: round;
      }

      .cls-3, .cls-2, .cls-5 {
        stroke: #84c13d;
        stroke-width: 2px;
      }

      .cls-3, .cls-5 {
        fill: none;
      }

      .cls-4 {
        fill: #e0ecbf;
        stroke: #83c03d;
        stroke-width: 4px;
      }

      .cls-4, .cls-5 {
        stroke-miterlimit: 10;
      }
    </style>
  </defs>
  <rect class="cls-4" x="2" y="2" width="79.37" height="79.37"/>
  <polygon class="cls-1" points="68.22 44.67 69.92 46.57 70.81 49.27 69.72 52.6 68 54.17 65.3 54.59 61.88 62.34 57.03 66.89 52.47 70.15 49.01 70.78 42.58 67.49 38.35 63.85 35.71 61.09 33.76 54.59 31.07 54.31 29.08 52.21 27.96 50.26 28.04 48.15 29.08 46.75 28.38 43.97 28.84 39.23 30.56 32.01 34.3 26.18 38.8 22.81 42.01 21.72 41.68 18.2 43.42 14.69 45.23 12.75 47.24 12.25 49.39 12.25 51.88 12.25 53.92 13.67 55.82 16.67 56.52 21.72 59.24 23.42 63.72 26.93 66.98 31.55 68.81 37.33 69.08 42.01 68.22 44.67"/>
  <g>
    <g>
      <g>
        <path class="cls-5" d="M66.95,43.81s-1.17-11.88-10.63-15.54"/>
        <path class="cls-5" d="M29.76,45.94s-3.3,1.18-.96,6.24c0,0,1.37,2.84,4.35,2.36"/>
        <path class="cls-5" d="M69.01,45.94s3.3,1.18.96,6.24c0,0-1.37,2.84-4.35,2.36"/>
        <g>
          <g>
            <path class="cls-5" d="M43.33,59.73s1.57,1.52,5.68,1.34"/>
            <path class="cls-5" d="M54.7,59.73s-1.57,1.52-5.68,1.34"/>
          </g>
          <path class="cls-5" d="M39.96,50.26s.38.59,1.71.59,1.76-.59,1.76-.59"/>
          <path class="cls-5" d="M54.58,50.26s.38.59,1.71.59,1.76-.59,1.76-.59"/>
        </g>
        <path class="cls-5" d="M31.9,49.27l3.42,9.77s1.62,5.96,6.28,7.85l3.1,1.89s2.22,1.85,4.62,1.99"/>
        <path class="cls-5" d="M66.73,49.27l-3.42,9.77s-1.62,5.96-6.28,7.85l-3.1,1.89s-2.22,1.85-4.62,1.99"/>
        <line class="cls-5" x1="40.61" y1="43.43" x2="42.78" y2="43.43"/>
        <line class="cls-5" x1="55.23" y1="43.43" x2="57.4" y2="43.43"/>
        <path class="cls-3" d="M28.86,43.81s-1.66-28.16,27.46-21.68l-2.37,5.42s-16.83-3.58-23.19,14.29"/>
        <path class="cls-5" d="M58.02,22.81s12.45,5.08,10.92,20.63"/>
        <path class="cls-5" d="M41.68,19.53c0-4.38,3.28-7.92,7.32-7.92s7.32,3.55,7.32,7.92"/>
      </g>
      <path class="cls-5" d="M53.54,30.21s4.02,9.55,11.39,13.6"/>
      <path class="cls-5" d="M40.92,32.01s-3.23,10.56-8.66,13.6"/>
    </g>
    <circle class="cls-2" cx="20.82" cy="19.26" r="8.27"/>
    <polyline class="cls-3" points="20.82 14.69 20.82 19.26 23.75 21.72"/>
  </g>
</svg>