<?xml version="1.0" encoding="UTF-8"?>
<svg id="_레이어_1" data-name=" 레이어 1" xmlns="http://www.w3.org/2000/svg" viewBox="0 0 83.37 83.37">
  <defs>
    <style>
      .cls-1 {
        fill: #fff;
      }

      .cls-2 {
        fill: #e0ecbf;
        stroke: #83c03d;
        stroke-width: 4px;
      }

      .cls-2, .cls-3 {
        stroke-linecap: round;
        stroke-miterlimit: 10;
      }

      .cls-3 {
        fill: none;
        stroke: #84c13d;
        stroke-width: 2px;
      }
    </style>
  </defs>
  <rect class="cls-2" x="2" y="2" width="79.37" height="79.37"/>
  <polygon class="cls-1" points="14.31 18.77 12.89 20.07 15.59 22.05 17.88 27.24 19.49 21.81 22.88 20.28 20.02 18.02 17.86 13.59 15.77 17.62 14.31 18.77"/>
  <polygon class="cls-1" points="63.92 59.44 62.49 60.74 65.2 62.72 67.48 67.92 69.09 62.48 72.49 60.95 69.62 58.7 67.46 54.26 65.38 58.29 63.92 59.44"/>
  <polygon class="cls-1" points="60.87 44.67 62.58 46.57 63.47 49.27 62.37 52.6 60.65 54.17 57.95 54.59 54.53 62.34 49.68 66.89 45.13 70.15 41.67 70.78 35.23 67.49 31.01 63.85 28.36 61.09 26.41 54.59 23.73 54.31 21.74 52.21 20.61 50.26 20.69 48.15 21.74 46.75 21.03 43.97 21.49 39.23 23.21 32.01 26.96 26.18 31.46 22.81 34.66 21.72 34.33 18.2 36.08 14.69 37.88 12.75 39.9 12.25 42.04 12.25 44.53 12.25 46.58 13.67 48.47 16.67 49.18 21.72 51.89 23.42 56.37 26.93 59.64 31.55 61.46 37.33 61.73 42.01 60.87 44.67"/>
  <g>
    <g>
      <path class="cls-3" d="M59.67,43.81s-1.17-11.88-10.63-15.54"/>
      <path class="cls-3" d="M22.48,45.94s-3.3,1.18-.96,6.24c0,0,1.37,2.84,4.35,2.36"/>
      <path class="cls-3" d="M61.74,45.94s3.3,1.18.96,6.24c0,0-1.37,2.84-4.35,2.36"/>
      <g>
        <g>
          <path class="cls-3" d="M36.06,59.73s1.57,1.52,5.68,1.34"/>
          <path class="cls-3" d="M47.42,59.73s-1.57,1.52-5.68,1.34"/>
        </g>
        <path class="cls-3" d="M32.68,50.26s.38.59,1.71.59,1.76-.59,1.76-.59"/>
        <path class="cls-3" d="M47.31,50.26s.38.59,1.71.59,1.76-.59,1.76-.59"/>
      </g>
      <path class="cls-3" d="M24.62,49.27l3.42,9.77s1.62,5.96,6.28,7.85l3.1,1.89s2.22,1.85,4.62,1.99"/>
      <path class="cls-3" d="M59.46,49.27l-3.42,9.77s-1.62,5.96-6.28,7.85l-3.1,1.89s-2.22,1.85-4.62,1.99"/>
      <line class="cls-3" x1="33.33" y1="43.43" x2="35.5" y2="43.43"/>
      <line class="cls-3" x1="47.95" y1="43.43" x2="50.13" y2="43.43"/>
      <path class="cls-3" d="M21.58,43.81s-1.66-28.16,27.46-21.68l-2.37,5.42s-16.83-3.58-23.19,14.29"/>
      <path class="cls-3" d="M50.75,22.81s12.45,5.08,10.92,20.63"/>
      <path class="cls-3" d="M34.4,19.53c0-4.38,3.28-7.92,7.32-7.92s7.32,3.55,7.32,7.92"/>
    </g>
    <path class="cls-3" d="M46.27,30.21s4.02,9.55,11.39,13.6"/>
    <path class="cls-3" d="M33.64,32.01s-3.23,10.56-8.66,13.6"/>
    <g>
      <polyline class="cls-3" points="17.59 12.89 15.59 18.09 11.9 20.07"/>
      <polyline class="cls-3" points="17.59 27.24 15.59 22.05 11.9 20.07"/>
      <polyline class="cls-3" points="17.59 12.89 19.58 18.09 23.28 20.07"/>
      <polyline class="cls-3" points="17.59 27.24 19.58 22.05 23.28 20.07"/>
    </g>
    <g>
      <polyline class="cls-3" points="67.49 53.91 65.5 59.11 61.8 61.09"/>
      <polyline class="cls-3" points="67.49 68.26 65.5 63.07 61.8 61.09"/>
      <polyline class="cls-3" points="67.49 53.91 69.49 59.11 73.18 61.09"/>
      <polyline class="cls-3" points="67.49 68.26 69.49 63.07 73.18 61.09"/>
    </g>
  </g>
</svg>