<?xml version="1.0" encoding="UTF-8"?>
<svg id="_레이어_1" data-name=" 레이어 1" xmlns="http://www.w3.org/2000/svg" viewBox="0 0 83.37 83.37">
  <defs>
    <style>
      .cls-1 {
        fill: #fff;
      }

      .cls-2 {
        stroke-width: 2px;
      }

      .cls-2, .cls-3 {
        fill: none;
        stroke: #84c13d;
        stroke-linejoin: round;
      }

      .cls-2, .cls-3, .cls-4 {
        stroke-linecap: round;
      }

      .cls-3 {
        stroke-width: 2px;
      }

      .cls-4 {
        fill: #e0ecbf;
        stroke: #83c03d;
        stroke-miterlimit: 10;
        stroke-width: 4px;
      }
    </style>
  </defs>
  <rect class="cls-4" x="2" y="2" width="79.37" height="79.37"/>
  <g>
    <path class="cls-1" d="M22.04,36.2l-.23.51-4.53,10.06s1.48,14.66,8.01,18.46,13.81,5.66,18.67,4.56l1.42-7.79-7.08-19.74-16.26-6.07h0Z"/>
    <g>
      <path class="cls-3" d="M45.38,69.46l4.93-3.61c10.04-6.78,9.6-1.85,17.36-.7s0-9.69,0-9.69"/>
      <g>
        <polygon class="cls-1" points="16.57 42.68 18.2 52.06 20.17 55.45 21.88 56.44 30.71 61.54 42.55 68.62 43.96 69.81 47 67.89 54.89 62.8 58.25 62.01 62.39 62.93 66.89 64.59 69.93 64.66 70.72 63.57 69.63 59.34 67.53 55.96 62.78 45.02 57.82 29.39 51.56 18.92 43.64 12.3 37.83 10.86 31.8 11.43 26.13 14.64 21.09 20.41 18.2 28.09 16.57 35.71 16.57 42.68"/>
        <path class="cls-3" d="M16.57,40.53s-.82-26.66,17.97-29.48,25.49,26.08,25.49,26.08"/>
        <line class="cls-3" x1="61.68" y1="42.68" x2="64.85" y2="49.9"/>
        <ellipse class="cls-2" cx="31.81" cy="33.43" rx="6.83" ry="3.44" transform="translate(-9.76 13.4) rotate(-20.7)"/>
        <path class="cls-3" d="M57.82,30.99c-1.3.51-3.07.72-4.98.52-3.75-.4-6.63-2.25-6.43-4.14s3.4-3.09,7.15-2.7c.43.05.85.11,1.25.19"/>
        <path class="cls-3" d="M56.25,46.84c.33,1.56-1.89,4.53-5.25,5.24s-6.59-1.1-6.92-2.66c-.33-1.56,2.12-3.4,5.48-4.11s6.35-.03,6.68,1.53h.01Z"/>
        <g>
          <line class="cls-3" x1="21.09" y1="45.77" x2="26.13" y2="50.8"/>
          <line class="cls-3" x1="31.16" y1="45.77" x2="26.13" y2="50.8"/>
          <line class="cls-3" x1="26.13" y1="58.89" x2="26.13" y2="43.27"/>
        </g>
        <g>
          <line class="cls-3" x1="12.25" y1="56.69" x2="19.12" y2="54.85"/>
          <line class="cls-3" x1="17.28" y1="47.97" x2="19.12" y2="54.85"/>
          <line class="cls-3" x1="26.13" y1="58.89" x2="12.6" y2="51.08"/>
        </g>
        <g>
          <line class="cls-3" x1="17.28" y1="69.81" x2="19.12" y2="62.93"/>
          <line class="cls-3" x1="12.25" y1="61.09" x2="19.12" y2="62.93"/>
          <line class="cls-3" x1="26.13" y1="58.89" x2="12.6" y2="66.7"/>
        </g>
        <g>
          <line class="cls-3" x1="31.16" y1="72.01" x2="26.13" y2="66.97"/>
          <line class="cls-3" x1="21.09" y1="72.01" x2="26.13" y2="66.97"/>
          <line class="cls-3" x1="26.13" y1="58.89" x2="26.13" y2="74.51"/>
        </g>
        <g>
          <line class="cls-3" x1="40" y1="61.09" x2="33.13" y2="62.93"/>
          <line class="cls-3" x1="34.97" y1="69.81" x2="33.13" y2="62.93"/>
          <line class="cls-3" x1="26.13" y1="58.89" x2="39.66" y2="66.7"/>
        </g>
        <g>
          <line class="cls-3" x1="34.97" y1="47.97" x2="33.13" y2="54.85"/>
          <line class="cls-3" x1="40" y1="56.69" x2="33.13" y2="54.85"/>
          <line class="cls-3" x1="26.13" y1="58.89" x2="39.66" y2="51.08"/>
        </g>
      </g>
    </g>
  </g>
</svg>