<?xml version="1.0" encoding="UTF-8"?>
<svg id="_레이어_1" data-name=" 레이어 1" xmlns="http://www.w3.org/2000/svg" viewBox="0 0 83.37 83.37">
  <defs>
    <style>
      .cls-1 {
        fill: #fff;
      }

      .cls-1, .cls-2, .cls-3 {
        stroke-linecap: round;
        stroke-miterlimit: 10;
      }

      .cls-1, .cls-3 {
        stroke: #84c13d;
        stroke-width: 2px;
      }

      .cls-2 {
        fill: #e0ecbf;
        stroke: #83c03d;
        stroke-width: 4px;
      }

      .cls-3 {
        fill: none;
      }
    </style>
  </defs>
  <rect class="cls-2" x="2" y="2" width="79.37" height="79.37"/>
  <g>
    <g>
      <g>
        <path class="cls-1" d="M70.09,45.34v15.58c0,3.82-3.94,6.92-8.79,6.92H21.73c-4.86,0-8.79-3.1-8.79-6.92v-15.58"/>
        <g>
          <path class="cls-3" d="M13.4,45.34h56.69"/>
          <g>
            <g>
              <g>
                <path class="cls-3" d="M13.4,50.55s.8,1.79,5.15,1.79"/>
                <path class="cls-3" d="M23.7,50.55s-.8,1.79-5.15,1.79"/>
              </g>
              <g>
                <path class="cls-3" d="M34.01,50.55s-.8-1.79-5.15-1.79"/>
                <path class="cls-3" d="M23.7,50.55s.8-1.79,5.15-1.79"/>
              </g>
            </g>
            <g>
              <g>
                <path class="cls-3" d="M54.63,50.55s-.8-1.79-5.15-1.79"/>
                <path class="cls-3" d="M44.32,50.55s.8-1.79,5.15-1.79"/>
              </g>
              <g>
                <path class="cls-3" d="M34.01,50.55s.8,1.79,5.15,1.79"/>
                <path class="cls-3" d="M44.32,50.55s-.8,1.79-5.15,1.79"/>
              </g>
            </g>
            <g>
              <path class="cls-3" d="M64.93,50.55s.8-1.79,5.15-1.79"/>
              <g>
                <path class="cls-3" d="M54.63,50.55s.8,1.79,5.15,1.79"/>
                <path class="cls-3" d="M64.93,50.55s-.8,1.79-5.15,1.79"/>
              </g>
            </g>
          </g>
          <line class="cls-3" x1="17.05" y1="57.64" x2="20.13" y2="57.64"/>
          <line class="cls-3" x1="34.98" y1="57.64" x2="38.06" y2="57.64"/>
          <line class="cls-3" x1="26.02" y1="62.14" x2="29.09" y2="62.14"/>
          <line class="cls-3" x1="43.94" y1="62.14" x2="47.02" y2="62.14"/>
          <line class="cls-3" x1="34.98" y1="57.64" x2="38.06" y2="57.64"/>
          <line class="cls-3" x1="43.94" y1="62.14" x2="47.02" y2="62.14"/>
          <line class="cls-3" x1="52.91" y1="57.64" x2="55.98" y2="57.64"/>
          <line class="cls-3" x1="61.87" y1="62.14" x2="64.95" y2="62.14"/>
          <line class="cls-3" x1="52.91" y1="57.64" x2="55.98" y2="57.64"/>
          <line class="cls-3" x1="61.87" y1="62.14" x2="64.95" y2="62.14"/>
        </g>
      </g>
      <path class="cls-3" d="M21.67,41.44s-1.38,2.69-7.23,2.29"/>
      <path class="cls-3" d="M33.45,34.47s-1.45,1.83-4.59,2.26"/>
      <path class="cls-3" d="M34.96,41.19s3.73,3.47,12.18,3.02"/>
      <path class="cls-3" d="M48.98,37.53s2.47,1.72,5.64,1.43"/>
      <path class="cls-3" d="M58.54,42.84s3.56,2.26,10.76.83"/>
    </g>
    <g>
      <line class="cls-3" x1="41.93" y1="27.35" x2="41.93" y2="18.41"/>
      <line class="cls-3" x1="46.35" y1="21.72" x2="41.93" y2="18.41"/>
      <line class="cls-3" x1="37.52" y1="21.72" x2="41.93" y2="18.41"/>
    </g>
    <g>
      <line class="cls-3" x1="19.43" y1="33.73" x2="19.43" y2="24.79"/>
      <line class="cls-3" x1="23.84" y1="28.1" x2="19.43" y2="24.79"/>
      <line class="cls-3" x1="15.01" y1="28.1" x2="19.43" y2="24.79"/>
    </g>
    <g>
      <line class="cls-3" x1="64.44" y1="33.73" x2="64.44" y2="24.79"/>
      <line class="cls-3" x1="60.02" y1="28.1" x2="64.44" y2="24.79"/>
      <line class="cls-3" x1="68.85" y1="28.1" x2="64.44" y2="24.79"/>
    </g>
  </g>
</svg>