<?xml version="1.0" encoding="UTF-8"?>
<svg id="_레이어_1" data-name=" 레이어 1" xmlns="http://www.w3.org/2000/svg" viewBox="0 0 83.37 83.37">
  <defs>
    <style>
      .cls-1, .cls-2, .cls-3 {
        fill: #fff;
      }

      .cls-2 {
        stroke-width: 2px;
      }

      .cls-2, .cls-3 {
        stroke: #84c13d;
        stroke-linejoin: round;
      }

      .cls-2, .cls-3, .cls-4 {
        stroke-linecap: round;
      }

      .cls-3 {
        stroke-width: 2px;
      }

      .cls-5 {
        fill: #84c13d;
      }

      .cls-4 {
        fill: #e0ecbf;
        stroke: #83c03d;
        stroke-miterlimit: 10;
        stroke-width: 4px;
      }
    </style>
  </defs>
  <rect class="cls-4" x="2" y="2" width="79.37" height="79.37"/>
  <path class="cls-1" d="M27.22,29.24l-4.53,3.97-3.35,2.49-1.81,2.55-2.39,6.51,10.88,6.85,11.61,5.08,3.68,3.61,3.47,1.79,2.3,3.15s8.27-2.25,8.15-2.62,5.2-6.97,5.13-7.42-3.08-4.42-3.08-4.42l-3.98-4.46-7.46-.86-1.06-6-4.97-5.1-12.6-5.1v-.02Z"/>
  <g>
    <path class="cls-3" d="M56.85,50.36s-1.73-6.05-11.91-6.05-16.14-1.54-16.14,4.13c0,0,.19,3.17,8.07,3.17h5.96"/>
    <path class="cls-3" d="M45.85,62.95l-2.81-2.81s-20.47,3.1-32.28-13.84c0,0-1.95-2.45,1.08-4.68s8.07,4.47,8.07,4.47c0,0,2.86,3.03,8.89,2.74"/>
    <rect class="cls-2" x="43.3" y="56.23" width="23.87" height="9.94" rx="2.26" ry="2.26" transform="translate(-27.1 56.99) rotate(-45)"/>
    <g>
      <path class="cls-3" d="M23.05,32.55s-2.37-8.21,5.22-12.14c0,0-1.57,6.97,5.67,7.67,0,0,6.07.31,7.39,7.62"/>
      <path class="cls-3" d="M17.34,38.87s1.58-6.76,8.99-5.05"/>
      <path class="cls-3" d="M44.73,40.71s1.14-4.8-6.07-4.92c0,0-6.04.63-8.17-.82"/>
    </g>
  </g>
  <circle class="cls-3" cx="58.49" cy="25.69" r="14.27"/>
  <g>
    <path class="cls-5" d="M53.64,26.98h-2.2v4.16l-1.62.56c-.34.12-.51.02-.51-.31v-11.93h4.33c2.43,0,4.18,1.06,4.18,3.76s-1.75,3.76-4.18,3.76ZM53.02,21.29h-1.58v3.87h1.58c1.4,0,2.62-.33,2.62-1.93s-1.22-1.93-2.62-1.93h0Z"/>
    <path class="cls-5" d="M67.22,31.71c-.34.12-.53.02-.53-.31v-5.19h-4.87v4.94l-1.62.56c-.34.12-.51.02-.51-.31v-11.93h2.14v4.93h4.87v-4.93h2.14v11.68l-1.61.56h-.01Z"/>
  </g>
</svg>