<?xml version="1.0" encoding="UTF-8"?>
<svg id="_레이어_1" data-name=" 레이어 1" xmlns="http://www.w3.org/2000/svg" viewBox="0 0 83.37 83.37">
  <defs>
    <style>
      .cls-1 {
        fill: none;
      }

      .cls-1, .cls-2 {
        stroke: #84c13d;
        stroke-linejoin: round;
        stroke-width: 2px;
      }

      .cls-1, .cls-2, .cls-3 {
        stroke-linecap: round;
      }

      .cls-2 {
        fill: #fff;
      }

      .cls-3 {
        fill: #e0ecbf;
        stroke: #83c03d;
        stroke-miterlimit: 10;
        stroke-width: 4px;
      }
    </style>
  </defs>
  <rect class="cls-3" x="2" y="2" width="79.37" height="79.37"/>
  <g>
    <rect class="cls-2" x="23.99" y="11.78" width="19.35" height="4.28" rx="1.87" ry="1.87"/>
    <rect class="cls-2" x="28.65" y="16.06" width="3.85" height="8.73"/>
    <rect class="cls-2" x="23.99" y="24.79" width="13.06" height="16.83" rx="3.13" ry="3.13"/>
    <path class="cls-2" d="M37.15,37.21h-12.16c-5.84,0-10.58,4.73-10.58,10.58v23.81h33.31v-23.81c0-5.84-4.73-10.58-10.58-10.58h0Z"/>
    <path class="cls-2" d="M51.05,53.03l-5.44-2.48c-10.79-5.05-13.1-1.82-13.1-1.82l10.64,4.97"/>
    <path class="cls-2" d="M68.75,61.49s-3.34-4.71-10.45-2.14c-7.11,2.57-13.36,2.92-19.95.69-6.59-2.23-13.44-3.26-13.44-3.26,0,0-.86-2.27,2.14-2.38s10,.58,10,.58l-10.51-5.48s-.13-3.68,5.97-.77,10.64,4.97,10.64,4.97c0,0,5.31,1.11,12.67-2.48s12.59-1.54,18.24,3.77"/>
    <path class="cls-1" d="M51.71,57.57l-10.38.48s-3.35-1.8-.9-2.96c3.11-1.48,5.74-1.28,5.74-1.28"/>
  </g>
  <path class="cls-2" d="M54.72,27.22c0,2.92-2.37,5.29-5.29,5.29s-5.29-2.37-5.29-5.29,5.29-8.81,5.29-8.81c0,0,5.29,5.89,5.29,8.81Z"/>
  <path class="cls-2" d="M66.6,38.97c0,2.92-2.37,5.29-5.29,5.29s-5.29-2.37-5.29-5.29,5.29-8.81,5.29-8.81c0,0,5.29,5.89,5.29,8.81Z"/>
</svg>