<?xml version="1.0" encoding="UTF-8"?>
<svg id="_레이어_1" data-name=" 레이어 1" xmlns="http://www.w3.org/2000/svg" viewBox="0 0 83.37 83.37">
  <defs>
    <style>
      .cls-1 {
        fill: none;
      }

      .cls-1, .cls-2 {
        stroke: #84c13d;
        stroke-linejoin: round;
        stroke-width: 2px;
      }

      .cls-1, .cls-2, .cls-3 {
        stroke-linecap: round;
      }

      .cls-2 {
        fill: #fff;
      }

      .cls-3 {
        fill: #e0ecbf;
        stroke: #83c03d;
        stroke-miterlimit: 10;
        stroke-width: 4px;
      }
    </style>
  </defs>
  <rect class="cls-3" x="2" y="2" width="79.37" height="79.37"/>
  <g>
    <g>
      <path class="cls-2" d="M72.66,13.12l-1.61,3.1-7.11.33-3.37,2.24h-2.03l.09,3.58,2.77.18s-.18,6.87-.03,6.87-.94.19-.94.19l.37,2.99,4.38,5.62.03,28.66-.48,1.4-.95.91-14.98.21-1.61-1.03-.53-1.49v-28.41l4.52-6.23.12-2.82h-.96v-6.84l2.99-.21v-3.58h-2.58l.15-3.56,1.1-.34,7.66.09,3.73-2.23,9.59-.11s-.32.48-.32.48Z"/>
      <g>
        <polygon class="cls-2" points="59.89 14.98 63.39 12.75 73.14 12.75 71 16.3 64.05 16.3 60.29 18.79 53.5 18.79 50.9 18.79 50.9 14.88 59.89 14.98"/>
        <line class="cls-1" x1="53.33" y1="22.37" x2="53.33" y2="18.79"/>
        <polyline class="cls-2" points="55.77 22.37 50.34 22.37 50.34 29.42 55.94 29.42"/>
        <path class="cls-2" d="M51.18,29.76v2.7l-4.52,5.8v28.61s.25,2.58,2.49,2.52h6.79"/>
        <line class="cls-1" x1="58.55" y1="22.37" x2="58.55" y2="18.79"/>
        <polyline class="cls-2" points="56.1 22.37 61.54 22.37 61.54 29.42 55.94 29.42"/>
        <path class="cls-2" d="M60.7,29.76v2.7l4.52,5.8v28.61s-.25,2.58-2.49,2.52h-6.79"/>
        <line class="cls-1" x1="48.99" y1="39.89" x2="65.22" y2="39.89"/>
        <line class="cls-1" x1="48.99" y1="63.89" x2="65.22" y2="63.89"/>
      </g>
    </g>
    <g>
      <path class="cls-2" d="M40.1,69.17s3.52,2.04,6.54-.51c0,0,3.18-3.03,4.02-6.65,0,0,2.07-5.33,8.28-12.13l-4.89,1.03-1.06-.6-.61,1.31-2.23,1.47-1.47-.44.12,1.55-2.78,2.43s-7.87,8.47-5.9,12.29"/>
      <path class="cls-2" d="M28.17,69.17s-3.52,2.04-6.54-.51c0,0-3.18-3.03-4.02-6.65,0,0-2.07-5.33-8.28-12.13l4.89,1.03,1.06-.6.61,1.31,2.23,1.47,1.47-.44-.12,1.55,2.78,2.43s7.87,8.47,5.9,12.29"/>
      <path class="cls-2" d="M35.28,70.73s9.2-.11,11.59-13.95c0,0,2.77-22.7,8.28-28.43l-6.07,3.65-1.54.05.27,2.07-2.16,2.49-2.09.05.58,1.91s-4.7,6.67-4.13,12l-4.73,13.58v6.58Z"/>
      <path class="cls-2" d="M33.17,50.53c1.8-5.05-2.59-13.64-2.59-13.64l1.01-1.72-2.02-.54-1.51-2.93.74-1.95-1.48-.41-5.12-4.73c2.64,5.33,3.49,17.01,3.14,24.98-.63-1.89-1.44-4.08-2.32-5.91l-.24-2.49h-1.54l-1.7-2.07.37-1.54-1.54-.58s-1.33-2.55-4.24-4.4v.32l5.52,15.49s-.75,22.97,14.93,22.31v-5.87l-1.42-14.31h0Z"/>
      <path class="cls-2" d="M40.56,15.87s-5.8,11-9.48,23.3-4.51,27.15,3.51,31.55c0,0,8.49-3.61,5.97-17.82,0,0-1.26-6.8-1.22-12.29l1.02-2.11-1.32-1.11.08-4.61,1.95-1.5-1.56-1.49s-.97-8.04,1.06-13.91h-.01Z"/>
    </g>
  </g>
</svg>