<?xml version="1.0" encoding="UTF-8"?>
<svg id="_레이어_1" data-name="레이어 1" xmlns="http://www.w3.org/2000/svg" xmlns:xlink="http://www.w3.org/1999/xlink" viewBox="0 0 71.05 71.05">
  <defs>
    <style>
      .cls-1 {
        fill: none;
        stroke: #cc528e;
        stroke-miterlimit: 10;
        stroke-width: 5px;
      }

      .cls-2 {
        clip-path: url(#clippath-1);
      }
    </style>
    <clipPath id="clippath-1">
      <path class="cls-1" d="M35.53,2.5v66.05c18.24,0,33.02-14.79,33.02-33.02S53.76,2.5,35.53,2.5Z"/>
    </clipPath>
  </defs>
  <circle class="cls-1" cx="35.52" cy="35.52" r="33.02"/>
  <path class="cls-1" d="M2.5,35.52c0,18.24,14.79,33.02,33.03,33.02V2.5C17.29,2.5,2.5,17.29,2.5,35.52Z"/>
  <g>
    <g class="cls-2">
      <g>
        <line class="cls-1" x1="26.48" y1="-6.47" x2="82.28" y2="49.32"/>
        <line class="cls-1" x1="20.11" y1="-.1" x2="75.91" y2="55.69"/>
        <line class="cls-1" x1="13.74" y1="6.27" x2="69.53" y2="62.07"/>
        <line class="cls-1" x1="7.37" y1="12.64" x2="63.16" y2="68.44"/>
        <line class="cls-1" x1="1" y1="19.01" x2="56.79" y2="74.81"/>
      </g>
    </g>
    <path class="cls-1" d="M35.53,2.5v66.05c18.24,0,33.02-14.79,33.02-33.02S53.76,2.5,35.53,2.5Z"/>
  </g>
</svg>