<?xml version="1.0" encoding="UTF-8"?>
<svg id="_레이어_1" data-name="레이어 1" xmlns="http://www.w3.org/2000/svg" viewBox="0 0 76 59.4">
  <defs>
    <style>
      .cls-1 {
        stroke: #f6b483;
      }

      .cls-1, .cls-2, .cls-3 {
        fill: none;
        stroke-miterlimit: 10;
        stroke-width: 5px;
      }

      .cls-2 {
        stroke: #bd771a;
      }

      .cls-3 {
        stroke: #f4a34c;
      }
    </style>
  </defs>
  <g>
    <g>
      <path class="cls-2" d="M16.7,49.11c0,2.97,0,7.79-7.1,7.79s-7.1-4.82-7.1-7.79"/>
      <path class="cls-2" d="M23.8,41.31c7.1,0,7.1,4.82,7.1,7.79"/>
      <path class="cls-2" d="M16.7,49.11c0-2.97,0-7.79,7.1-7.79"/>
    </g>
    <g>
      <path class="cls-2" d="M45.1,49.11c0-2.97,0-7.79,7.1-7.79s7.1,4.82,7.1,7.79"/>
      <path class="cls-2" d="M38,56.9c-7.1,0-7.1-4.82-7.1-7.79"/>
      <path class="cls-2" d="M45.1,49.11c0,2.97,0,7.79-7.1,7.79"/>
    </g>
    <g>
      <path class="cls-2" d="M66.4,56.9c-7.1,0-7.1-4.82-7.1-7.79"/>
      <path class="cls-2" d="M73.5,49.11c0,2.97,0,7.79-7.1,7.79"/>
    </g>
  </g>
  <g>
    <g>
      <path class="cls-3" d="M16.7,29.7c0,2.97,0,7.79-7.1,7.79s-7.1-4.82-7.1-7.79"/>
      <path class="cls-3" d="M23.8,21.91c7.1,0,7.1,4.82,7.1,7.79"/>
      <path class="cls-3" d="M16.7,29.7c0-2.97,0-7.79,7.1-7.79"/>
    </g>
    <g>
      <path class="cls-3" d="M45.1,29.7c0-2.97,0-7.79,7.1-7.79s7.1,4.82,7.1,7.79"/>
      <path class="cls-3" d="M38,37.49c-7.1,0-7.1-4.82-7.1-7.79"/>
      <path class="cls-3" d="M45.1,29.7c0,2.97,0,7.79-7.1,7.79"/>
    </g>
    <g>
      <path class="cls-3" d="M66.4,37.49c-7.1,0-7.1-4.82-7.1-7.79"/>
      <path class="cls-3" d="M73.5,29.7c0,2.97,0,7.79-7.1,7.79"/>
    </g>
  </g>
  <g>
    <g>
      <path class="cls-1" d="M16.7,10.29c0,2.97,0,7.79-7.1,7.79s-7.1-4.82-7.1-7.79"/>
      <path class="cls-1" d="M23.8,2.5c7.1,0,7.1,4.82,7.1,7.79"/>
      <path class="cls-1" d="M16.7,10.29c0-2.97,0-7.79,7.1-7.79"/>
    </g>
    <g>
      <path class="cls-1" d="M45.1,10.29c0-2.97,0-7.79,7.1-7.79s7.1,4.82,7.1,7.79"/>
      <path class="cls-1" d="M38,18.08c-7.1,0-7.1-4.82-7.1-7.79"/>
      <path class="cls-1" d="M45.1,10.29c0,2.97,0,7.79-7.1,7.79"/>
    </g>
    <g>
      <path class="cls-1" d="M66.4,18.08c-7.1,0-7.1-4.82-7.1-7.79"/>
      <path class="cls-1" d="M73.5,10.29c0,2.97,0,7.79-7.1,7.79"/>
    </g>
  </g>
</svg>